<svg width="32" height="32" viewBox="0 0 32 32" fill="none" xmlns="http://www.w3.org/2000/svg">
<path d="M20.687 4H12.4973C9.11907 4 7 6.38305 7 10.2065V25.9876C7 27.099 7.87083 28 8.94504 28C9.27026 27.9998 9.59035 27.9161 9.87662 27.7564L16.5409 24.0177L24.3006 27.7776C24.5111 27.869 24.7479 27.8701 24.9592 27.7807C25.1704 27.6913 25.3386 27.5187 25.4267 27.301C25.5568 26.8997 25.3991 26.4589 25.048 26.2418L17.3394 22.5137C16.8358 22.2273 16.2256 22.2273 15.722 22.5137L9.04741 26.2418C8.97087 26.2852 8.87827 26.2852 8.80172 26.2418C8.72895 26.1934 8.68617 26.1089 8.68912 26.0194V10.2065C8.69935 7.37864 10.0711 5.76876 12.528 5.76876H20.7177C23.8707 5.76876 24.3314 8.41659 24.3314 10.0053V10.7255H15.4661C15.2407 10.7338 15.0277 10.8344 14.8741 11.0053C14.7205 11.1761 14.6388 11.4032 14.6471 11.6364C14.6579 12.0996 15.0183 12.4725 15.4661 12.4837H24.3006V21.7511C24.3006 22.2366 24.6811 22.6302 25.1503 22.6302C25.6156 22.6302 25.9944 22.2431 26 21.7617V10.0053C26 6.29832 23.9731 4 20.687 4Z" fill="#161616"/>
</svg>
