<svg width="32" height="32" viewBox="0 0 32 32" fill="none" xmlns="http://www.w3.org/2000/svg">
<path d="M14.829 26.0767H9.86593C8.25776 26.071 6.95387 24.8018 6.94206 23.2306V13.5855C6.94521 13.0596 7.18611 12.5618 7.6002 12.2257L8.47413 11.5933C8.79318 11.2611 8.82562 10.7544 8.55141 10.386C8.2772 10.0176 7.77374 9.89166 7.35205 10.0859L6.45654 10.7394C5.55322 11.4223 5.01717 12.4698 5 13.5855V23.2412C5.00593 25.8644 7.18101 27.9894 9.86593 27.9952H14.829C15.3653 27.9952 15.8 27.5705 15.8 27.0465C15.8 26.5226 15.3653 26.0978 14.829 26.0978V26.0767Z" fill="#161616"/>
<path d="M27.8 13.6034C27.789 12.4977 27.284 11.455 26.4238 10.762L19.1648 4.96337C17.5697 3.67888 15.2973 3.67888 13.7022 4.96337L11.4016 6.63666C10.9693 6.94761 10.8706 7.5507 11.181 7.98371C11.4914 8.41671 12.0934 8.51566 12.5256 8.20471L14.8577 6.45775C15.7731 5.70281 17.0939 5.70281 18.0093 6.45775L25.2683 12.2564C25.6861 12.5881 25.9329 13.0904 25.9406 13.6245V23.2643C25.9406 24.8336 24.6707 26.1057 23.1042 26.1057H20.9507C20.7302 26.1057 20.5515 25.9267 20.5515 25.7058V21.3595C20.5515 19.9745 19.4338 18.8501 18.0513 18.8443H14.8998C14.2339 18.8443 13.5953 19.1093 13.1244 19.581C12.6536 20.0527 12.3891 20.6924 12.3891 21.3595V23.0222C12.3891 23.5453 12.8123 23.9694 13.3345 23.9694C13.8567 23.9694 14.28 23.5453 14.28 23.0222V21.3595C14.2771 21.1958 14.3401 21.0378 14.4547 20.921C14.5692 20.8043 14.7258 20.7385 14.8893 20.7386H18.0408C18.3773 20.7386 18.6501 21.0118 18.6501 21.3489V25.7058C18.6559 26.9746 19.6842 28 20.9507 28H23.0517C25.6683 28 27.7895 25.875 27.7895 23.2538L27.8 13.6034Z" fill="#161616"/>
</svg>
