<svg width="32" height="32" viewBox="0 0 32 32" fill="none" xmlns="http://www.w3.org/2000/svg">
<circle cx="16" cy="10" r="6" stroke="#172239" stroke-width="1.71429" stroke-linecap="round" stroke-linejoin="round"/>
<path fill-rule="evenodd" clip-rule="evenodd" d="M7.00002 23.9965C6.99849 23.5514 7.08775 23.1117 7.26104 22.7108C7.80484 21.4979 9.33834 20.8551 10.6108 20.564C11.5285 20.3456 12.4589 20.1997 13.3951 20.1273C15.1282 19.9576 16.8714 19.9576 18.6046 20.1273C19.5407 20.2005 20.471 20.3464 21.3889 20.564C22.6613 20.8551 24.1948 21.4373 24.7386 22.7108C25.0871 23.5281 25.0871 24.477 24.7386 25.2943C24.1948 26.5678 22.6613 27.15 21.3889 27.4289C20.4722 27.6564 19.5415 27.8064 18.6046 27.8777C17.1939 28.0111 15.7767 28.0354 14.363 27.9505C14.0367 27.9505 13.7213 27.9505 13.3951 27.8777C12.4617 27.8073 11.5345 27.6573 10.6217 27.4289C9.33834 27.15 7.81571 26.5678 7.26104 25.2943C7.08864 24.8887 6.99947 24.4453 7.00002 23.9965Z" stroke="#172239" stroke-width="1.71429" stroke-linecap="round" stroke-linejoin="round"/>
</svg>
